<svg width="1920" height="101" viewBox="0 0 1920 101" fill="none" xmlns="http://www.w3.org/2000/svg">
<g clip-path="url(#clip0_494_3853)">
<rect width="1920" height="100" transform="translate(0 0.214355)" fill="url(#paint0_linear_494_3853)"/>
<path d="M-271.64 78.2144C-272.013 78.2144 -272.333 78.081 -272.6 77.8144C-272.867 77.5477 -273 77.2277 -273 76.8544V23.5744C-273 23.201 -272.867 22.9077 -272.6 22.6944C-272.333 22.4277 -272.013 22.2944 -271.64 22.2944L-227.64 22.2144C-224.227 22.2144 -221.08 22.961 -218.2 24.4544C-215.267 25.8944 -212.947 28.0544 -211.24 30.9344C-209.48 33.8144 -208.6 37.281 -208.6 41.3344C-208.6 44.961 -209.48 48.241 -211.24 51.1744C-213 54.1077 -215.347 56.401 -218.28 58.0544C-221.213 59.7077 -224.333 60.5344 -227.64 60.5344L-252.68 60.6144C-253.053 60.6144 -253.373 60.7477 -253.64 61.0144C-253.907 61.281 -254.04 61.601 -254.04 61.9744V76.8544C-254.04 77.2277 -254.173 77.5477 -254.44 77.8144C-254.707 78.081 -255.027 78.2144 -255.4 78.2144H-271.64ZM-230.68 43.8944C-229.88 43.8944 -229.267 43.7077 -228.84 43.3344C-228.36 42.9077 -228.12 42.401 -228.12 41.8144C-228.12 41.2277 -228.333 40.7477 -228.76 40.3744C-229.187 39.9477 -229.827 39.7344 -230.68 39.7344H-252.28C-252.6 39.7344 -252.84 39.8144 -253 39.9744C-253.213 40.1344 -253.32 40.321 -253.32 40.5344V43.1744C-253.32 43.3877 -253.213 43.5744 -253 43.7344C-252.84 43.8944 -252.6 43.9744 -252.28 43.9744L-230.68 43.8944ZM-188.882 78.2144C-191.709 78.2144 -194.322 77.4944 -196.722 76.0544C-199.122 74.561 -201.042 72.5877 -202.482 70.1344C-203.869 67.6277 -204.562 64.9077 -204.562 61.9744V38.5344C-204.562 35.5477 -203.869 32.8277 -202.482 30.3744C-201.042 27.8677 -199.122 25.8944 -196.722 24.4544C-194.322 22.961 -191.709 22.2144 -188.882 22.2144H-154.722C-151.842 22.2144 -149.202 22.961 -146.802 24.4544C-144.402 25.8944 -142.509 27.8677 -141.122 30.3744C-139.736 32.8277 -139.042 35.5477 -139.042 38.5344V61.9744C-139.042 64.9077 -139.736 67.6277 -141.122 70.1344C-142.509 72.5877 -144.402 74.561 -146.802 76.0544C-149.202 77.4944 -151.842 78.2144 -154.722 78.2144H-188.882ZM-160.642 59.4144C-159.896 59.4144 -159.256 59.1477 -158.722 58.6144C-158.189 58.0277 -157.922 57.3077 -157.922 56.4544V43.7344C-157.922 42.881 -158.189 42.161 -158.722 41.5744C-159.256 40.9877 -159.896 40.6944 -160.642 40.6944H-182.802C-183.549 40.6944 -184.216 40.9877 -184.802 41.5744C-185.336 42.161 -185.602 42.881 -185.602 43.7344V56.4544C-185.602 57.3077 -185.336 58.0277 -184.802 58.6144C-184.216 59.1477 -183.549 59.4144 -182.802 59.4144H-160.642ZM-72.0712 22.2144C-71.6979 22.2144 -71.4046 22.321 -71.1912 22.5344C-70.9246 22.7477 -70.7912 23.0144 -70.7912 23.3344V77.0944C-70.7912 77.4144 -70.9246 77.681 -71.1912 77.8944C-71.4046 78.1077 -71.6979 78.2144 -72.0712 78.2144H-87.9112C-88.2846 78.2144 -88.6046 78.1077 -88.8712 77.8944C-89.1379 77.6277 -89.2712 77.361 -89.2712 77.0944V39.9744C-89.2712 39.7077 -89.3779 39.4677 -89.5912 39.2544C-89.8046 38.9877 -90.0712 38.8544 -90.3912 38.8544H-102.951C-103.485 38.8544 -103.858 39.1744 -104.071 39.8144L-108.791 65.9744C-109.698 69.5477 -111.565 72.481 -114.391 74.7744C-117.165 77.0677 -120.365 78.2144 -123.991 78.2144H-133.911C-134.178 78.2144 -134.445 78.1077 -134.711 77.8944C-134.925 77.681 -135.031 77.4144 -135.031 77.0944V61.0144C-135.031 60.7477 -134.925 60.5077 -134.711 60.2944C-134.445 60.0277 -134.178 59.8944 -133.911 59.8944H-126.391L-119.991 23.3344C-119.938 23.0144 -119.805 22.7477 -119.591 22.5344C-119.325 22.321 -119.031 22.2144 -118.711 22.2144H-72.0712ZM-3.86812 22.2144C-3.49479 22.2144 -3.20145 22.321 -2.98812 22.5344C-2.72145 22.7477 -2.58812 23.0144 -2.58812 23.3344V77.0944C-2.58812 77.4144 -2.72145 77.681 -2.98812 77.8944C-3.20145 78.1077 -3.49479 78.2144 -3.86812 78.2144H-19.7081C-20.0815 78.2144 -20.4015 78.1077 -20.6681 77.8944C-20.9348 77.6277 -21.0681 77.361 -21.0681 77.0944V39.9744C-21.0681 39.7077 -21.1748 39.4677 -21.3881 39.2544C-21.6015 38.9877 -21.8681 38.8544 -22.1881 38.8544H-34.7481C-35.2815 38.8544 -35.6548 39.1744 -35.8681 39.8144L-40.5881 65.9744C-41.4948 69.5477 -43.3615 72.481 -46.1881 74.7744C-48.9615 77.0677 -52.1615 78.2144 -55.7881 78.2144H-65.7081C-65.9748 78.2144 -66.2415 78.1077 -66.5081 77.8944C-66.7215 77.681 -66.8281 77.4144 -66.8281 77.0944V61.0144C-66.8281 60.7477 -66.7215 60.5077 -66.5081 60.2944C-66.2415 60.0277 -65.9748 59.8944 -65.7081 59.8944H-58.1881L-51.7881 23.3344C-51.7348 23.0144 -51.6015 22.7477 -51.3881 22.5344C-51.1215 22.321 -50.8281 22.2144 -50.5081 22.2144H-3.86812ZM79.615 22.2144C79.8817 22.2144 80.1217 22.321 80.335 22.5344C80.6017 22.7477 80.735 23.0144 80.735 23.3344V77.0144C80.735 77.281 80.6017 77.5477 80.335 77.8144C80.1217 78.0277 79.8817 78.1344 79.615 78.1344H62.895C62.575 78.1344 62.3083 78.0277 62.095 77.8144C61.8817 77.5477 61.775 77.281 61.775 77.0144V23.3344C61.775 23.0144 61.8817 22.7477 62.095 22.5344C62.3083 22.321 62.575 22.2144 62.895 22.2144H79.615ZM58.815 59.1744C58.815 63.2277 57.935 66.6944 56.175 69.5744C54.4683 72.401 52.1483 74.561 49.215 76.0544C46.335 77.4944 43.1883 78.2144 39.775 78.2144H2.735C2.36167 78.2144 2.04167 78.081 1.775 77.8144C1.50833 77.5477 1.375 77.2277 1.375 76.8544V23.6544C1.375 23.2277 1.50833 22.9077 1.775 22.6944C2.04167 22.4277 2.36167 22.2944 2.735 22.2944H18.975C19.3483 22.2944 19.6683 22.4277 19.935 22.6944C20.2017 22.961 20.335 23.281 20.335 23.6544V38.5344C20.335 38.961 20.4417 39.281 20.655 39.4944C20.9217 39.761 21.2417 39.8944 21.615 39.8944L39.775 39.9744C43.0817 39.9744 46.2017 40.801 49.135 42.4544C52.0683 44.1077 54.415 46.401 56.175 49.3344C57.935 52.2677 58.815 55.5477 58.815 59.1744ZM39.295 58.6944C39.295 58.0544 39.055 57.5477 38.575 57.1744C38.1483 56.7477 37.535 56.5344 36.735 56.5344L22.015 56.4544C21.695 56.4544 21.455 56.5344 21.295 56.6944C21.0817 56.9077 20.975 57.0944 20.975 57.2544V59.9744C20.975 60.1344 21.0817 60.321 21.295 60.5344C21.455 60.6944 21.695 60.7744 22.015 60.7744H36.735C37.5883 60.7744 38.2283 60.5877 38.655 60.2144C39.0817 59.7877 39.295 59.281 39.295 58.6944Z" fill="#FFD8E1"/>
<path d="M262.36 78.2144C261.987 78.2144 261.667 78.081 261.4 77.8144C261.133 77.5477 261 77.2277 261 76.8544V23.5744C261 23.201 261.133 22.9077 261.4 22.6944C261.667 22.4277 261.987 22.2944 262.36 22.2944L306.36 22.2144C309.773 22.2144 312.92 22.961 315.8 24.4544C318.733 25.8944 321.053 28.0544 322.76 30.9344C324.52 33.8144 325.4 37.281 325.4 41.3344C325.4 44.961 324.52 48.241 322.76 51.1744C321 54.1077 318.653 56.401 315.72 58.0544C312.787 59.7077 309.667 60.5344 306.36 60.5344L281.32 60.6144C280.947 60.6144 280.627 60.7477 280.36 61.0144C280.093 61.281 279.96 61.601 279.96 61.9744V76.8544C279.96 77.2277 279.827 77.5477 279.56 77.8144C279.293 78.081 278.973 78.2144 278.6 78.2144H262.36ZM303.32 43.8944C304.12 43.8944 304.733 43.7077 305.16 43.3344C305.64 42.9077 305.88 42.401 305.88 41.8144C305.88 41.2277 305.667 40.7477 305.24 40.3744C304.813 39.9477 304.173 39.7344 303.32 39.7344H281.72C281.4 39.7344 281.16 39.8144 281 39.9744C280.787 40.1344 280.68 40.321 280.68 40.5344V43.1744C280.68 43.3877 280.787 43.5744 281 43.7344C281.16 43.8944 281.4 43.9744 281.72 43.9744L303.32 43.8944ZM345.118 78.2144C342.291 78.2144 339.678 77.4944 337.278 76.0544C334.878 74.561 332.958 72.5877 331.518 70.1344C330.131 67.6277 329.438 64.9077 329.438 61.9744V38.5344C329.438 35.5477 330.131 32.8277 331.518 30.3744C332.958 27.8677 334.878 25.8944 337.278 24.4544C339.678 22.961 342.291 22.2144 345.118 22.2144H379.278C382.158 22.2144 384.798 22.961 387.198 24.4544C389.598 25.8944 391.491 27.8677 392.878 30.3744C394.264 32.8277 394.958 35.5477 394.958 38.5344V61.9744C394.958 64.9077 394.264 67.6277 392.878 70.1344C391.491 72.5877 389.598 74.561 387.198 76.0544C384.798 77.4944 382.158 78.2144 379.278 78.2144H345.118ZM373.358 59.4144C374.104 59.4144 374.744 59.1477 375.278 58.6144C375.811 58.0277 376.078 57.3077 376.078 56.4544V43.7344C376.078 42.881 375.811 42.161 375.278 41.5744C374.744 40.9877 374.104 40.6944 373.358 40.6944H351.198C350.451 40.6944 349.784 40.9877 349.198 41.5744C348.664 42.161 348.398 42.881 348.398 43.7344V56.4544C348.398 57.3077 348.664 58.0277 349.198 58.6144C349.784 59.1477 350.451 59.4144 351.198 59.4144H373.358ZM461.929 22.2144C462.302 22.2144 462.595 22.321 462.809 22.5344C463.075 22.7477 463.209 23.0144 463.209 23.3344V77.0944C463.209 77.4144 463.075 77.681 462.809 77.8944C462.595 78.1077 462.302 78.2144 461.929 78.2144H446.089C445.715 78.2144 445.395 78.1077 445.129 77.8944C444.862 77.6277 444.729 77.361 444.729 77.0944V39.9744C444.729 39.7077 444.622 39.4677 444.409 39.2544C444.195 38.9877 443.929 38.8544 443.609 38.8544H431.049C430.515 38.8544 430.142 39.1744 429.929 39.8144L425.209 65.9744C424.302 69.5477 422.435 72.481 419.609 74.7744C416.835 77.0677 413.635 78.2144 410.009 78.2144H400.089C399.822 78.2144 399.555 78.1077 399.289 77.8944C399.075 77.681 398.969 77.4144 398.969 77.0944V61.0144C398.969 60.7477 399.075 60.5077 399.289 60.2944C399.555 60.0277 399.822 59.8944 400.089 59.8944H407.609L414.009 23.3344C414.062 23.0144 414.195 22.7477 414.409 22.5344C414.675 22.321 414.969 22.2144 415.289 22.2144H461.929ZM530.132 22.2144C530.505 22.2144 530.799 22.321 531.012 22.5344C531.279 22.7477 531.412 23.0144 531.412 23.3344V77.0944C531.412 77.4144 531.279 77.681 531.012 77.8944C530.799 78.1077 530.505 78.2144 530.132 78.2144H514.292C513.919 78.2144 513.599 78.1077 513.332 77.8944C513.065 77.6277 512.932 77.361 512.932 77.0944V39.9744C512.932 39.7077 512.825 39.4677 512.612 39.2544C512.399 38.9877 512.132 38.8544 511.812 38.8544H499.252C498.719 38.8544 498.345 39.1744 498.132 39.8144L493.412 65.9744C492.505 69.5477 490.639 72.481 487.812 74.7744C485.039 77.0677 481.839 78.2144 478.212 78.2144H468.292C468.025 78.2144 467.759 78.1077 467.492 77.8944C467.279 77.681 467.172 77.4144 467.172 77.0944V61.0144C467.172 60.7477 467.279 60.5077 467.492 60.2944C467.759 60.0277 468.025 59.8944 468.292 59.8944H475.812L482.212 23.3344C482.265 23.0144 482.399 22.7477 482.612 22.5344C482.879 22.321 483.172 22.2144 483.492 22.2144H530.132ZM613.615 22.2144C613.882 22.2144 614.122 22.321 614.335 22.5344C614.602 22.7477 614.735 23.0144 614.735 23.3344V77.0144C614.735 77.281 614.602 77.5477 614.335 77.8144C614.122 78.0277 613.882 78.1344 613.615 78.1344H596.895C596.575 78.1344 596.308 78.0277 596.095 77.8144C595.882 77.5477 595.775 77.281 595.775 77.0144V23.3344C595.775 23.0144 595.882 22.7477 596.095 22.5344C596.308 22.321 596.575 22.2144 596.895 22.2144H613.615ZM592.815 59.1744C592.815 63.2277 591.935 66.6944 590.175 69.5744C588.468 72.401 586.148 74.561 583.215 76.0544C580.335 77.4944 577.188 78.2144 573.775 78.2144H536.735C536.362 78.2144 536.042 78.081 535.775 77.8144C535.508 77.5477 535.375 77.2277 535.375 76.8544V23.6544C535.375 23.2277 535.508 22.9077 535.775 22.6944C536.042 22.4277 536.362 22.2944 536.735 22.2944H552.975C553.348 22.2944 553.668 22.4277 553.935 22.6944C554.202 22.961 554.335 23.281 554.335 23.6544V38.5344C554.335 38.961 554.442 39.281 554.655 39.4944C554.922 39.761 555.242 39.8944 555.615 39.8944L573.775 39.9744C577.082 39.9744 580.202 40.801 583.135 42.4544C586.068 44.1077 588.415 46.401 590.175 49.3344C591.935 52.2677 592.815 55.5477 592.815 59.1744ZM573.295 58.6944C573.295 58.0544 573.055 57.5477 572.575 57.1744C572.148 56.7477 571.535 56.5344 570.735 56.5344L556.015 56.4544C555.695 56.4544 555.455 56.5344 555.295 56.6944C555.082 56.9077 554.975 57.0944 554.975 57.2544V59.9744C554.975 60.1344 555.082 60.321 555.295 60.5344C555.455 60.6944 555.695 60.7744 556.015 60.7744H570.735C571.588 60.7744 572.228 60.5877 572.655 60.2144C573.082 59.7877 573.295 59.281 573.295 58.6944Z" fill="#FFD8E1"/>
<path d="M796.36 78.2144C795.987 78.2144 795.667 78.081 795.4 77.8144C795.133 77.5477 795 77.2277 795 76.8544V23.5744C795 23.201 795.133 22.9077 795.4 22.6944C795.667 22.4277 795.987 22.2944 796.36 22.2944L840.36 22.2144C843.773 22.2144 846.92 22.961 849.8 24.4544C852.733 25.8944 855.053 28.0544 856.76 30.9344C858.52 33.8144 859.4 37.281 859.4 41.3344C859.4 44.961 858.52 48.241 856.76 51.1744C855 54.1077 852.653 56.401 849.72 58.0544C846.787 59.7077 843.667 60.5344 840.36 60.5344L815.32 60.6144C814.947 60.6144 814.627 60.7477 814.36 61.0144C814.093 61.281 813.96 61.601 813.96 61.9744V76.8544C813.96 77.2277 813.827 77.5477 813.56 77.8144C813.293 78.081 812.973 78.2144 812.6 78.2144H796.36ZM837.32 43.8944C838.12 43.8944 838.733 43.7077 839.16 43.3344C839.64 42.9077 839.88 42.401 839.88 41.8144C839.88 41.2277 839.667 40.7477 839.24 40.3744C838.813 39.9477 838.173 39.7344 837.32 39.7344H815.72C815.4 39.7344 815.16 39.8144 815 39.9744C814.787 40.1344 814.68 40.321 814.68 40.5344V43.1744C814.68 43.3877 814.787 43.5744 815 43.7344C815.16 43.8944 815.4 43.9744 815.72 43.9744L837.32 43.8944ZM879.118 78.2144C876.291 78.2144 873.678 77.4944 871.278 76.0544C868.878 74.561 866.958 72.5877 865.518 70.1344C864.131 67.6277 863.438 64.9077 863.438 61.9744V38.5344C863.438 35.5477 864.131 32.8277 865.518 30.3744C866.958 27.8677 868.878 25.8944 871.278 24.4544C873.678 22.961 876.291 22.2144 879.118 22.2144H913.278C916.158 22.2144 918.798 22.961 921.198 24.4544C923.598 25.8944 925.491 27.8677 926.878 30.3744C928.264 32.8277 928.958 35.5477 928.958 38.5344V61.9744C928.958 64.9077 928.264 67.6277 926.878 70.1344C925.491 72.5877 923.598 74.561 921.198 76.0544C918.798 77.4944 916.158 78.2144 913.278 78.2144H879.118ZM907.358 59.4144C908.104 59.4144 908.744 59.1477 909.278 58.6144C909.811 58.0277 910.078 57.3077 910.078 56.4544V43.7344C910.078 42.881 909.811 42.161 909.278 41.5744C908.744 40.9877 908.104 40.6944 907.358 40.6944H885.198C884.451 40.6944 883.784 40.9877 883.198 41.5744C882.664 42.161 882.398 42.881 882.398 43.7344V56.4544C882.398 57.3077 882.664 58.0277 883.198 58.6144C883.784 59.1477 884.451 59.4144 885.198 59.4144H907.358ZM995.929 22.2144C996.302 22.2144 996.595 22.321 996.809 22.5344C997.075 22.7477 997.209 23.0144 997.209 23.3344V77.0944C997.209 77.4144 997.075 77.681 996.809 77.8944C996.595 78.1077 996.302 78.2144 995.929 78.2144H980.089C979.715 78.2144 979.395 78.1077 979.129 77.8944C978.862 77.6277 978.729 77.361 978.729 77.0944V39.9744C978.729 39.7077 978.622 39.4677 978.409 39.2544C978.195 38.9877 977.929 38.8544 977.609 38.8544H965.049C964.515 38.8544 964.142 39.1744 963.929 39.8144L959.209 65.9744C958.302 69.5477 956.435 72.481 953.609 74.7744C950.835 77.0677 947.635 78.2144 944.009 78.2144H934.089C933.822 78.2144 933.555 78.1077 933.289 77.8944C933.075 77.681 932.969 77.4144 932.969 77.0944V61.0144C932.969 60.7477 933.075 60.5077 933.289 60.2944C933.555 60.0277 933.822 59.8944 934.089 59.8944H941.609L948.009 23.3344C948.062 23.0144 948.195 22.7477 948.409 22.5344C948.675 22.321 948.969 22.2144 949.289 22.2144H995.929ZM1064.13 22.2144C1064.51 22.2144 1064.8 22.321 1065.01 22.5344C1065.28 22.7477 1065.41 23.0144 1065.41 23.3344V77.0944C1065.41 77.4144 1065.28 77.681 1065.01 77.8944C1064.8 78.1077 1064.51 78.2144 1064.13 78.2144H1048.29C1047.92 78.2144 1047.6 78.1077 1047.33 77.8944C1047.07 77.6277 1046.93 77.361 1046.93 77.0944V39.9744C1046.93 39.7077 1046.83 39.4677 1046.61 39.2544C1046.4 38.9877 1046.13 38.8544 1045.81 38.8544H1033.25C1032.72 38.8544 1032.35 39.1744 1032.13 39.8144L1027.41 65.9744C1026.51 69.5477 1024.64 72.481 1021.81 74.7744C1019.04 77.0677 1015.84 78.2144 1012.21 78.2144H1002.29C1002.03 78.2144 1001.76 78.1077 1001.49 77.8944C1001.28 77.681 1001.17 77.4144 1001.17 77.0944V61.0144C1001.17 60.7477 1001.28 60.5077 1001.49 60.2944C1001.76 60.0277 1002.03 59.8944 1002.29 59.8944H1009.81L1016.21 23.3344C1016.27 23.0144 1016.4 22.7477 1016.61 22.5344C1016.88 22.321 1017.17 22.2144 1017.49 22.2144H1064.13ZM1147.62 22.2144C1147.88 22.2144 1148.12 22.321 1148.34 22.5344C1148.6 22.7477 1148.74 23.0144 1148.74 23.3344V77.0144C1148.74 77.281 1148.6 77.5477 1148.34 77.8144C1148.12 78.0277 1147.88 78.1344 1147.62 78.1344H1130.9C1130.58 78.1344 1130.31 78.0277 1130.1 77.8144C1129.88 77.5477 1129.78 77.281 1129.78 77.0144V23.3344C1129.78 23.0144 1129.88 22.7477 1130.1 22.5344C1130.31 22.321 1130.58 22.2144 1130.9 22.2144H1147.62ZM1126.82 59.1744C1126.82 63.2277 1125.94 66.6944 1124.18 69.5744C1122.47 72.401 1120.15 74.561 1117.22 76.0544C1114.34 77.4944 1111.19 78.2144 1107.77 78.2144H1070.74C1070.36 78.2144 1070.04 78.081 1069.78 77.8144C1069.51 77.5477 1069.38 77.2277 1069.38 76.8544V23.6544C1069.38 23.2277 1069.51 22.9077 1069.78 22.6944C1070.04 22.4277 1070.36 22.2944 1070.74 22.2944H1086.98C1087.35 22.2944 1087.67 22.4277 1087.93 22.6944C1088.2 22.961 1088.34 23.281 1088.34 23.6544V38.5344C1088.34 38.961 1088.44 39.281 1088.66 39.4944C1088.92 39.761 1089.24 39.8944 1089.62 39.8944L1107.77 39.9744C1111.08 39.9744 1114.2 40.801 1117.14 42.4544C1120.07 44.1077 1122.42 46.401 1124.18 49.3344C1125.94 52.2677 1126.82 55.5477 1126.82 59.1744ZM1107.3 58.6944C1107.3 58.0544 1107.06 57.5477 1106.58 57.1744C1106.15 56.7477 1105.54 56.5344 1104.74 56.5344L1090.02 56.4544C1089.7 56.4544 1089.46 56.5344 1089.3 56.6944C1089.08 56.9077 1088.98 57.0944 1088.98 57.2544V59.9744C1088.98 60.1344 1089.08 60.321 1089.3 60.5344C1089.46 60.6944 1089.7 60.7744 1090.02 60.7744H1104.74C1105.59 60.7744 1106.23 60.5877 1106.66 60.2144C1107.08 59.7877 1107.3 59.281 1107.3 58.6944Z" fill="#FFD8E1"/>
<path d="M1330.36 78.2144C1329.99 78.2144 1329.67 78.081 1329.4 77.8144C1329.13 77.5477 1329 77.2277 1329 76.8544V23.5744C1329 23.201 1329.13 22.9077 1329.4 22.6944C1329.67 22.4277 1329.99 22.2944 1330.36 22.2944L1374.36 22.2144C1377.77 22.2144 1380.92 22.961 1383.8 24.4544C1386.73 25.8944 1389.05 28.0544 1390.76 30.9344C1392.52 33.8144 1393.4 37.281 1393.4 41.3344C1393.4 44.961 1392.52 48.241 1390.76 51.1744C1389 54.1077 1386.65 56.401 1383.72 58.0544C1380.79 59.7077 1377.67 60.5344 1374.36 60.5344L1349.32 60.6144C1348.95 60.6144 1348.63 60.7477 1348.36 61.0144C1348.09 61.281 1347.96 61.601 1347.96 61.9744V76.8544C1347.96 77.2277 1347.83 77.5477 1347.56 77.8144C1347.29 78.081 1346.97 78.2144 1346.6 78.2144H1330.36ZM1371.32 43.8944C1372.12 43.8944 1372.73 43.7077 1373.16 43.3344C1373.64 42.9077 1373.88 42.401 1373.88 41.8144C1373.88 41.2277 1373.67 40.7477 1373.24 40.3744C1372.81 39.9477 1372.17 39.7344 1371.32 39.7344H1349.72C1349.4 39.7344 1349.16 39.8144 1349 39.9744C1348.79 40.1344 1348.68 40.321 1348.68 40.5344V43.1744C1348.68 43.3877 1348.79 43.5744 1349 43.7344C1349.16 43.8944 1349.4 43.9744 1349.72 43.9744L1371.32 43.8944ZM1413.12 78.2144C1410.29 78.2144 1407.68 77.4944 1405.28 76.0544C1402.88 74.561 1400.96 72.5877 1399.52 70.1344C1398.13 67.6277 1397.44 64.9077 1397.44 61.9744V38.5344C1397.44 35.5477 1398.13 32.8277 1399.52 30.3744C1400.96 27.8677 1402.88 25.8944 1405.28 24.4544C1407.68 22.961 1410.29 22.2144 1413.12 22.2144H1447.28C1450.16 22.2144 1452.8 22.961 1455.2 24.4544C1457.6 25.8944 1459.49 27.8677 1460.88 30.3744C1462.26 32.8277 1462.96 35.5477 1462.96 38.5344V61.9744C1462.96 64.9077 1462.26 67.6277 1460.88 70.1344C1459.49 72.5877 1457.6 74.561 1455.2 76.0544C1452.8 77.4944 1450.16 78.2144 1447.28 78.2144H1413.12ZM1441.36 59.4144C1442.1 59.4144 1442.74 59.1477 1443.28 58.6144C1443.81 58.0277 1444.08 57.3077 1444.08 56.4544V43.7344C1444.08 42.881 1443.81 42.161 1443.28 41.5744C1442.74 40.9877 1442.1 40.6944 1441.36 40.6944H1419.2C1418.45 40.6944 1417.78 40.9877 1417.2 41.5744C1416.66 42.161 1416.4 42.881 1416.4 43.7344V56.4544C1416.4 57.3077 1416.66 58.0277 1417.2 58.6144C1417.78 59.1477 1418.45 59.4144 1419.2 59.4144H1441.36ZM1529.93 22.2144C1530.3 22.2144 1530.6 22.321 1530.81 22.5344C1531.08 22.7477 1531.21 23.0144 1531.21 23.3344V77.0944C1531.21 77.4144 1531.08 77.681 1530.81 77.8944C1530.6 78.1077 1530.3 78.2144 1529.93 78.2144H1514.09C1513.72 78.2144 1513.4 78.1077 1513.13 77.8944C1512.86 77.6277 1512.73 77.361 1512.73 77.0944V39.9744C1512.73 39.7077 1512.62 39.4677 1512.41 39.2544C1512.2 38.9877 1511.93 38.8544 1511.61 38.8544H1499.05C1498.52 38.8544 1498.14 39.1744 1497.93 39.8144L1493.21 65.9744C1492.3 69.5477 1490.44 72.481 1487.61 74.7744C1484.84 77.0677 1481.64 78.2144 1478.01 78.2144H1468.09C1467.82 78.2144 1467.56 78.1077 1467.29 77.8944C1467.08 77.681 1466.97 77.4144 1466.97 77.0944V61.0144C1466.97 60.7477 1467.08 60.5077 1467.29 60.2944C1467.56 60.0277 1467.82 59.8944 1468.09 59.8944H1475.61L1482.01 23.3344C1482.06 23.0144 1482.2 22.7477 1482.41 22.5344C1482.68 22.321 1482.97 22.2144 1483.29 22.2144H1529.93ZM1598.13 22.2144C1598.51 22.2144 1598.8 22.321 1599.01 22.5344C1599.28 22.7477 1599.41 23.0144 1599.41 23.3344V77.0944C1599.41 77.4144 1599.28 77.681 1599.01 77.8944C1598.8 78.1077 1598.51 78.2144 1598.13 78.2144H1582.29C1581.92 78.2144 1581.6 78.1077 1581.33 77.8944C1581.07 77.6277 1580.93 77.361 1580.93 77.0944V39.9744C1580.93 39.7077 1580.83 39.4677 1580.61 39.2544C1580.4 38.9877 1580.13 38.8544 1579.81 38.8544H1567.25C1566.72 38.8544 1566.35 39.1744 1566.13 39.8144L1561.41 65.9744C1560.51 69.5477 1558.64 72.481 1555.81 74.7744C1553.04 77.0677 1549.84 78.2144 1546.21 78.2144H1536.29C1536.03 78.2144 1535.76 78.1077 1535.49 77.8944C1535.28 77.681 1535.17 77.4144 1535.17 77.0944V61.0144C1535.17 60.7477 1535.28 60.5077 1535.49 60.2944C1535.76 60.0277 1536.03 59.8944 1536.29 59.8944H1543.81L1550.21 23.3344C1550.27 23.0144 1550.4 22.7477 1550.61 22.5344C1550.88 22.321 1551.17 22.2144 1551.49 22.2144H1598.13ZM1681.62 22.2144C1681.88 22.2144 1682.12 22.321 1682.34 22.5344C1682.6 22.7477 1682.74 23.0144 1682.74 23.3344V77.0144C1682.74 77.281 1682.6 77.5477 1682.34 77.8144C1682.12 78.0277 1681.88 78.1344 1681.62 78.1344H1664.9C1664.58 78.1344 1664.31 78.0277 1664.1 77.8144C1663.88 77.5477 1663.78 77.281 1663.78 77.0144V23.3344C1663.78 23.0144 1663.88 22.7477 1664.1 22.5344C1664.31 22.321 1664.58 22.2144 1664.9 22.2144H1681.62ZM1660.82 59.1744C1660.82 63.2277 1659.94 66.6944 1658.18 69.5744C1656.47 72.401 1654.15 74.561 1651.22 76.0544C1648.34 77.4944 1645.19 78.2144 1641.77 78.2144H1604.74C1604.36 78.2144 1604.04 78.081 1603.78 77.8144C1603.51 77.5477 1603.38 77.2277 1603.38 76.8544V23.6544C1603.38 23.2277 1603.51 22.9077 1603.78 22.6944C1604.04 22.4277 1604.36 22.2944 1604.74 22.2944H1620.98C1621.35 22.2944 1621.67 22.4277 1621.93 22.6944C1622.2 22.961 1622.34 23.281 1622.34 23.6544V38.5344C1622.34 38.961 1622.44 39.281 1622.66 39.4944C1622.92 39.761 1623.24 39.8944 1623.62 39.8944L1641.77 39.9744C1645.08 39.9744 1648.2 40.801 1651.14 42.4544C1654.07 44.1077 1656.42 46.401 1658.18 49.3344C1659.94 52.2677 1660.82 55.5477 1660.82 59.1744ZM1641.3 58.6944C1641.3 58.0544 1641.06 57.5477 1640.58 57.1744C1640.15 56.7477 1639.54 56.5344 1638.74 56.5344L1624.02 56.4544C1623.7 56.4544 1623.46 56.5344 1623.3 56.6944C1623.08 56.9077 1622.98 57.0944 1622.98 57.2544V59.9744C1622.98 60.1344 1623.08 60.321 1623.3 60.5344C1623.46 60.6944 1623.7 60.7744 1624.02 60.7744H1638.74C1639.59 60.7744 1640.23 60.5877 1640.66 60.2144C1641.08 59.7877 1641.3 59.281 1641.3 58.6944Z" fill="#FFD8E1"/>
<path d="M1864.36 78.2144C1863.99 78.2144 1863.67 78.081 1863.4 77.8144C1863.13 77.5477 1863 77.2277 1863 76.8544V23.5744C1863 23.201 1863.13 22.9077 1863.4 22.6944C1863.67 22.4277 1863.99 22.2944 1864.36 22.2944L1908.36 22.2144C1911.77 22.2144 1914.92 22.961 1917.8 24.4544C1920.73 25.8944 1923.05 28.0544 1924.76 30.9344C1926.52 33.8144 1927.4 37.281 1927.4 41.3344C1927.4 44.961 1926.52 48.241 1924.76 51.1744C1923 54.1077 1920.65 56.401 1917.72 58.0544C1914.79 59.7077 1911.67 60.5344 1908.36 60.5344L1883.32 60.6144C1882.95 60.6144 1882.63 60.7477 1882.36 61.0144C1882.09 61.281 1881.96 61.601 1881.96 61.9744V76.8544C1881.96 77.2277 1881.83 77.5477 1881.56 77.8144C1881.29 78.081 1880.97 78.2144 1880.6 78.2144H1864.36ZM1905.32 43.8944C1906.12 43.8944 1906.73 43.7077 1907.16 43.3344C1907.64 42.9077 1907.88 42.401 1907.88 41.8144C1907.88 41.2277 1907.67 40.7477 1907.24 40.3744C1906.81 39.9477 1906.17 39.7344 1905.32 39.7344H1883.72C1883.4 39.7344 1883.16 39.8144 1883 39.9744C1882.79 40.1344 1882.68 40.321 1882.68 40.5344V43.1744C1882.68 43.3877 1882.79 43.5744 1883 43.7344C1883.16 43.8944 1883.4 43.9744 1883.72 43.9744L1905.32 43.8944ZM1947.12 78.2144C1944.29 78.2144 1941.68 77.4944 1939.28 76.0544C1936.88 74.561 1934.96 72.5877 1933.52 70.1344C1932.13 67.6277 1931.44 64.9077 1931.44 61.9744V38.5344C1931.44 35.5477 1932.13 32.8277 1933.52 30.3744C1934.96 27.8677 1936.88 25.8944 1939.28 24.4544C1941.68 22.961 1944.29 22.2144 1947.12 22.2144H1981.28C1984.16 22.2144 1986.8 22.961 1989.2 24.4544C1991.6 25.8944 1993.49 27.8677 1994.88 30.3744C1996.26 32.8277 1996.96 35.5477 1996.96 38.5344V61.9744C1996.96 64.9077 1996.26 67.6277 1994.88 70.1344C1993.49 72.5877 1991.6 74.561 1989.2 76.0544C1986.8 77.4944 1984.16 78.2144 1981.28 78.2144H1947.12ZM1975.36 59.4144C1976.1 59.4144 1976.74 59.1477 1977.28 58.6144C1977.81 58.0277 1978.08 57.3077 1978.08 56.4544V43.7344C1978.08 42.881 1977.81 42.161 1977.28 41.5744C1976.74 40.9877 1976.1 40.6944 1975.36 40.6944H1953.2C1952.45 40.6944 1951.78 40.9877 1951.2 41.5744C1950.66 42.161 1950.4 42.881 1950.4 43.7344V56.4544C1950.4 57.3077 1950.66 58.0277 1951.2 58.6144C1951.78 59.1477 1952.45 59.4144 1953.2 59.4144H1975.36ZM2063.93 22.2144C2064.3 22.2144 2064.6 22.321 2064.81 22.5344C2065.08 22.7477 2065.21 23.0144 2065.21 23.3344V77.0944C2065.21 77.4144 2065.08 77.681 2064.81 77.8944C2064.6 78.1077 2064.3 78.2144 2063.93 78.2144H2048.09C2047.72 78.2144 2047.4 78.1077 2047.13 77.8944C2046.86 77.6277 2046.73 77.361 2046.73 77.0944V39.9744C2046.73 39.7077 2046.62 39.4677 2046.41 39.2544C2046.2 38.9877 2045.93 38.8544 2045.61 38.8544H2033.05C2032.52 38.8544 2032.14 39.1744 2031.93 39.8144L2027.21 65.9744C2026.3 69.5477 2024.44 72.481 2021.61 74.7744C2018.84 77.0677 2015.64 78.2144 2012.01 78.2144H2002.09C2001.82 78.2144 2001.56 78.1077 2001.29 77.8944C2001.08 77.681 2000.97 77.4144 2000.97 77.0944V61.0144C2000.97 60.7477 2001.08 60.5077 2001.29 60.2944C2001.56 60.0277 2001.82 59.8944 2002.09 59.8944H2009.61L2016.01 23.3344C2016.06 23.0144 2016.2 22.7477 2016.41 22.5344C2016.68 22.321 2016.97 22.2144 2017.29 22.2144H2063.93ZM2132.13 22.2144C2132.51 22.2144 2132.8 22.321 2133.01 22.5344C2133.28 22.7477 2133.41 23.0144 2133.41 23.3344V77.0944C2133.41 77.4144 2133.28 77.681 2133.01 77.8944C2132.8 78.1077 2132.51 78.2144 2132.13 78.2144H2116.29C2115.92 78.2144 2115.6 78.1077 2115.33 77.8944C2115.07 77.6277 2114.93 77.361 2114.93 77.0944V39.9744C2114.93 39.7077 2114.83 39.4677 2114.61 39.2544C2114.4 38.9877 2114.13 38.8544 2113.81 38.8544H2101.25C2100.72 38.8544 2100.35 39.1744 2100.13 39.8144L2095.41 65.9744C2094.51 69.5477 2092.64 72.481 2089.81 74.7744C2087.04 77.0677 2083.84 78.2144 2080.21 78.2144H2070.29C2070.03 78.2144 2069.76 78.1077 2069.49 77.8944C2069.28 77.681 2069.17 77.4144 2069.17 77.0944V61.0144C2069.17 60.7477 2069.28 60.5077 2069.49 60.2944C2069.76 60.0277 2070.03 59.8944 2070.29 59.8944H2077.81L2084.21 23.3344C2084.27 23.0144 2084.4 22.7477 2084.61 22.5344C2084.88 22.321 2085.17 22.2144 2085.49 22.2144H2132.13ZM2215.62 22.2144C2215.88 22.2144 2216.12 22.321 2216.34 22.5344C2216.6 22.7477 2216.74 23.0144 2216.74 23.3344V77.0144C2216.74 77.281 2216.6 77.5477 2216.34 77.8144C2216.12 78.0277 2215.88 78.1344 2215.62 78.1344H2198.9C2198.58 78.1344 2198.31 78.0277 2198.1 77.8144C2197.88 77.5477 2197.78 77.281 2197.78 77.0144V23.3344C2197.78 23.0144 2197.88 22.7477 2198.1 22.5344C2198.31 22.321 2198.58 22.2144 2198.9 22.2144H2215.62ZM2194.82 59.1744C2194.82 63.2277 2193.94 66.6944 2192.18 69.5744C2190.47 72.401 2188.15 74.561 2185.22 76.0544C2182.34 77.4944 2179.19 78.2144 2175.77 78.2144H2138.74C2138.36 78.2144 2138.04 78.081 2137.78 77.8144C2137.51 77.5477 2137.38 77.2277 2137.38 76.8544V23.6544C2137.38 23.2277 2137.51 22.9077 2137.78 22.6944C2138.04 22.4277 2138.36 22.2944 2138.74 22.2944H2154.98C2155.35 22.2944 2155.67 22.4277 2155.93 22.6944C2156.2 22.961 2156.34 23.281 2156.34 23.6544V38.5344C2156.34 38.961 2156.44 39.281 2156.66 39.4944C2156.92 39.761 2157.24 39.8944 2157.62 39.8944L2175.77 39.9744C2179.08 39.9744 2182.2 40.801 2185.14 42.4544C2188.07 44.1077 2190.42 46.401 2192.18 49.3344C2193.94 52.2677 2194.82 55.5477 2194.82 59.1744ZM2175.3 58.6944C2175.3 58.0544 2175.06 57.5477 2174.58 57.1744C2174.15 56.7477 2173.54 56.5344 2172.74 56.5344L2158.02 56.4544C2157.7 56.4544 2157.46 56.5344 2157.3 56.6944C2157.08 56.9077 2156.98 57.0944 2156.98 57.2544V59.9744C2156.98 60.1344 2157.08 60.321 2157.3 60.5344C2157.46 60.6944 2157.7 60.7744 2158.02 60.7744H2172.74C2173.59 60.7744 2174.23 60.5877 2174.66 60.2144C2175.08 59.7877 2175.3 59.281 2175.3 58.6944Z" fill="#FFD8E1"/>
</g>
<defs>
<linearGradient id="paint0_linear_494_3853" x1="960.05" y1="100.01" x2="960.05" y2="0.0103712" gradientUnits="userSpaceOnUse">
<stop stop-color="#F293A2"/>
<stop offset="1" stop-color="#F7BDC7"/>
</linearGradient>
<clipPath id="clip0_494_3853">
<rect width="1920" height="100" fill="white" transform="translate(0 0.214355)"/>
</clipPath>
</defs>
</svg>
